<svg width="512" height="512" viewBox="0 0 512 512" fill="none" xmlns="http://www.w3.org/2000/svg">
<path d="M19.3003 451.665C7.5065 440.112 1.23977 427.5 1 414.338V312.509H511V414.338C510.744 427.5 504.469 440.112 492.672 451.665C480.866 463.227 463.567 473.685 441.401 482.488C397.071 500.092 333.466 511 256 511C178.534 511 114.912 500.092 70.5746 482.488C48.4044 473.685 31.1038 463.227 19.3003 451.665Z" fill="#01589D" stroke="white" stroke-width="2"/>
<path d="M511 311.106C511 339.094 486.452 364.776 441.989 383.51C397.61 402.21 333.753 413.808 256 413.808C178.247 413.808 114.39 402.21 70.0106 383.51C25.5481 364.776 1 339.094 1 311.106C1 283.118 25.5481 257.436 70.0106 238.702C114.39 220.002 178.247 208.404 256 208.404C333.753 208.404 397.61 219.988 441.99 238.68C486.452 257.407 511 283.089 511 311.106Z" fill="#FFFBF8" stroke="white" stroke-width="2"/>
<path d="M19.3162 337.357C7.51228 325.26 1.23988 312.282 1 299.114V208.807H511V299.113C510.744 312.282 504.463 325.259 492.657 337.357C480.843 349.46 463.54 360.635 441.375 370.154C397.05 389.192 333.452 401.537 256 401.537C178.548 401.537 114.934 389.192 70.6001 370.154C48.432 360.635 31.1262 349.46 19.3162 337.357Z" fill="#01589D" stroke="white" stroke-width="2"/>
<path d="M511 207.404C511 235.392 486.452 261.074 441.989 279.808C397.61 298.508 333.753 310.106 256 310.106C178.247 310.106 114.39 298.508 70.0106 279.808C25.5481 261.074 1 235.392 1 207.404C1 179.416 25.5481 153.734 70.0106 135C114.39 116.3 178.247 104.702 256 104.702C333.753 104.702 397.61 116.286 441.99 134.978C486.452 153.705 511 179.387 511 207.404Z" fill="#FFFBF8" stroke="white" stroke-width="2"/>
<path d="M19.3162 233.655C7.51228 221.557 1.23988 208.58 1 195.412V105.105H511V195.411C510.744 208.58 504.463 221.557 492.657 233.655C480.843 245.758 463.54 256.933 441.375 266.452C397.05 285.49 333.452 297.835 256 297.835C178.548 297.835 114.934 285.49 70.6001 266.452C48.432 256.933 31.1262 245.758 19.3162 233.655Z" fill="#01589D" stroke="white" stroke-width="2"/>
<path d="M511 103.702C511 131.69 486.452 157.372 441.989 176.106C397.61 194.806 333.753 206.404 256 206.404C178.247 206.404 114.39 194.806 70.0106 176.106C25.5481 157.372 1 131.69 1 103.702C1 75.7139 25.5481 50.0318 70.0106 31.2976C114.39 12.5983 178.247 1 256 1C333.753 1 397.61 12.5839 441.99 31.276C486.452 50.0029 511 75.685 511 103.702Z" fill="#01589D" stroke="white" stroke-width="2"/>
<path d="M191.286 80.944C190.466 83.076 189.619 85.6727 188.744 88.734C187.869 91.7407 186.967 95.4307 186.038 99.804H184.234C184.671 96.9613 184.835 94.556 184.726 92.588C184.671 90.62 184.261 88.9253 183.496 87.504C182.457 85.4813 181.009 83.978 179.15 82.994C177.291 81.9553 175.269 81.436 173.082 81.436C170.294 81.436 167.588 82.256 164.964 83.896C162.34 85.4813 159.907 87.668 157.666 90.456C155.425 93.1893 153.429 96.3053 151.68 99.804C149.985 103.303 148.646 106.993 147.662 110.874C146.733 114.701 146.268 118.473 146.268 122.19C146.268 127.657 147.307 131.729 149.384 134.408C151.461 137.032 154.277 138.344 157.83 138.344C160.017 138.344 162.367 137.825 164.882 136.786C167.451 135.747 169.693 134.244 171.606 132.276C173.082 130.8 174.339 129.078 175.378 127.11C176.471 125.087 177.674 122.491 178.986 119.32H180.79C179.423 124.295 178.357 128.313 177.592 131.374C176.881 134.381 176.335 136.923 175.952 139H174.148C174.312 137.852 174.394 136.923 174.394 136.212C174.394 135.009 174.175 134.326 173.738 134.162C173.301 133.998 172.617 134.217 171.688 134.818C170.212 135.802 168.709 136.704 167.178 137.524C165.702 138.289 164.062 138.918 162.258 139.41C160.454 139.902 158.377 140.148 156.026 140.148C149.521 140.148 144.546 138.481 141.102 135.146C137.658 131.811 135.936 126.946 135.936 120.55C135.936 116.778 136.51 112.979 137.658 109.152C138.861 105.271 140.555 101.581 142.742 98.082C144.983 94.5833 147.607 91.4673 150.614 88.734C153.675 86.0007 157.065 83.8413 160.782 82.256C164.554 80.616 168.572 79.796 172.836 79.796C175.187 79.796 177.1 80.0693 178.576 80.616C180.052 81.108 181.282 81.764 182.266 82.584C183.305 83.3493 184.234 84.1967 185.054 85.126C185.819 85.8913 186.53 85.9733 187.186 85.372C187.897 84.7707 188.689 83.2947 189.564 80.944H191.286ZM184.212 140.148L229.148 79.796H231.854L186.918 140.148H184.212ZM285.057 80.944C284.237 83.076 283.39 85.6727 282.515 88.734C281.641 91.7407 280.739 95.4307 279.809 99.804H278.005C278.443 96.9613 278.607 94.556 278.497 92.588C278.443 90.62 278.033 88.9253 277.267 87.504C276.229 85.4813 274.78 83.978 272.921 82.994C271.063 81.9553 269.04 81.436 266.853 81.436C264.065 81.436 261.359 82.256 258.735 83.896C256.111 85.4813 253.679 87.668 251.437 90.456C249.196 93.1893 247.201 96.3053 245.451 99.804C243.757 103.303 242.417 106.993 241.433 110.874C240.504 114.701 240.039 118.473 240.039 122.19C240.039 127.657 241.078 131.729 243.155 134.408C245.233 137.032 248.048 138.344 251.601 138.344C253.788 138.344 256.139 137.825 258.653 136.786C261.223 135.747 263.464 134.244 265.377 132.276C266.853 130.8 268.111 129.078 269.149 127.11C270.243 125.087 271.445 122.491 272.757 119.32H274.561C273.195 124.295 272.129 128.313 271.363 131.374C270.653 134.381 270.106 136.923 269.723 139H267.919C268.083 137.852 268.165 136.923 268.165 136.212C268.165 135.009 267.947 134.326 267.509 134.162C267.072 133.998 266.389 134.217 265.459 134.818C263.983 135.802 262.48 136.704 260.949 137.524C259.473 138.289 257.833 138.918 256.029 139.41C254.225 139.902 252.148 140.148 249.797 140.148C243.292 140.148 238.317 138.481 234.873 135.146C231.429 131.811 229.707 126.946 229.707 120.55C229.707 116.778 230.281 112.979 231.429 109.152C232.632 105.271 234.327 101.581 236.513 98.082C238.755 94.5833 241.379 91.4673 244.385 88.734C247.447 86.0007 250.836 83.8413 254.553 82.256C258.325 80.616 262.343 79.796 266.607 79.796C268.958 79.796 270.871 80.0693 272.347 80.616C273.823 81.108 275.053 81.764 276.037 82.584C277.076 83.3493 278.005 84.1967 278.825 85.126C279.591 85.8913 280.301 85.9733 280.957 85.372C281.668 84.7707 282.461 83.2947 283.335 80.944H285.057ZM286.348 108.66H305.454L310.948 89.308H313.9L308.406 108.66H327.43L326.692 111.12H307.668L302.174 130.39H299.222L304.716 111.12H285.61L286.348 108.66ZM334.074 108.66H353.18L358.674 89.308H361.626L356.132 108.66H375.156L374.418 111.12H355.394L349.9 130.39H346.948L352.442 111.12H333.336L334.074 108.66Z" fill="white"/>
</svg>
